<?xml version="1.0" standalone="no"?><!DOCTYPE svg PUBLIC "-//W3C//DTD SVG 1.1//EN" "http://www.w3.org/Graphics/SVG/1.1/DTD/svg11.dtd"><svg t="1742012709466" class="icon" viewBox="0 0 1024 1024" version="1.1" xmlns="http://www.w3.org/2000/svg" p-id="15406" xmlns:xlink="http://www.w3.org/1999/xlink" width="200" height="200"><path d="M981.5 812.8c-1.2 2-30.2 49.1-94.1 83.5-37.2 20-78.7 31.9-123.5 35.2-8.7 0.6-17.5 1-26.4 1-47.5 0-98.2-9.1-151.3-27.2-150.7-51.5-239-48.2-286.4-36.4-43.4 10.8-58.4 30-58.5 30.2l-41.7-27.6c2.4-3.6 24.9-35.4 88.1-51.1 35-8.7 76.3-11 122.6-6.7 56.4 5.2 121 20.1 192 44.3 101.9 34.8 189.8 32.9 261.3-5.6 51.2-27.6 74.8-65 75-65.4l42.9 25.8z m-600.7-63.5c59.8 20.2 117.2 30.4 170.8 30.4 2.6 0 5.1 0 7.7-0.1 45.3-0.8 88-9 126.7-24.3 67.2-26.6 99.9-65.8 101.2-67.4l-38.7-31.7c-1.1 1.3-108.4 127.8-351.7 45.8-269.4-90.9-350.9 37.6-354.3 43.1L85.3 771s-0.1 0.1-0.2 0.3c0.6-1 16.3-24.6 59.1-39.6 41.2-14.5 115.7-23.2 236.6 17.6z m118.6-184.9c0-46.1 37.4-83.5 83.5-83.5s83.5 37.4 83.5 83.5-37.4 83.5-83.5 83.5-83.5-37.4-83.5-83.5z m50 0c0 18.5 15 33.5 33.5 33.5s33.5-15 33.5-33.5-15-33.5-33.5-33.5-33.5 15.1-33.5 33.5z m-121.2-277c36.4 0 66 29.5 66 66 0 36.4-29.5 66-66 66-36.4 0-66-29.5-66-66s29.5-66 66-66z m0 50c-8.8 0-16 7.2-16 16s7.2 16 16 16 16-7.2 16-16c-0.1-8.8-7.2-16-16-16z m-164-14.8c13.8 0 25-11.2 25-25s-11.2-25-25-25-25 11.2-25 25 11.2 25 25 25zM164.1 516.4c0-35.9 29.1-65 65-65s65 29.1 65 65-29.1 65-65 65-65-29.1-65-65z m50 0c0 8.3 6.7 15 15 15s15-6.7 15-15-6.7-15-15-15-15 6.8-15 15z m416.5-293.9c0-41.4 33.6-75 75-75s75 33.6 75 75-33.6 75-75 75-75-33.5-75-75z m50 0c0 13.8 11.2 25 25 25s25-11.2 25-25-11.2-25-25-25-25 11.3-25 25z m163.6 386c27.6 0 50-22.4 50-50s-22.4-50-50-50-50 22.4-50 50 22.4 50 50 50z m-459-417c27.6 0 50-22.4 50-50s-22.4-50-50-50-50 22.4-50 50 22.4 50 50 50z m310.1 196c0 13.8 11.2 25 25 25s25-11.2 25-25-11.2-25-25-25-25 11.2-25 25zM364.8 618.4c0 13.8 11.2 25 25 25s25-11.2 25-25-11.2-25-25-25-25 11.2-25 25z" fill="#ffffff" p-id="15407"></path></svg>