<?xml version="1.0" standalone="no"?><!DOCTYPE svg PUBLIC "-//W3C//DTD SVG 1.1//EN" "http://www.w3.org/Graphics/SVG/1.1/DTD/svg11.dtd"><svg t="1742065365421" class="icon" viewBox="0 0 1024 1024" version="1.1" xmlns="http://www.w3.org/2000/svg" p-id="2653" xmlns:xlink="http://www.w3.org/1999/xlink" width="200" height="200"><path d="M189.74 411.32a137.23 137.23 0 1 0 274.46 0 137.23 137.23 0 1 0-274.46 0zM326.97 165.45v54.89m0 16.47c-9.09 0-16.47-7.37-16.47-16.47v-54.89c0-9.09 7.37-16.47 16.47-16.47 9.09 0 16.47 7.37 16.47 16.47v54.89c0 9.1-7.38 16.47-16.47 16.47z m-174.47 0.65l38.82 38.82m0 16.47c-4.21 0-8.43-1.61-11.64-4.82l-38.81-38.81c-6.43-6.43-6.43-16.86 0-23.29s16.86-6.43 23.29 0l38.81 38.81c6.43 6.43 6.43 16.86 0 23.29a16.464 16.464 0 0 1-11.65 4.82zM326.97 602.3v54.89m0 16.47c-9.09 0-16.47-7.37-16.47-16.47V602.3c0-9.09 7.37-16.47 16.47-16.47 9.09 0 16.47 7.37 16.47 16.47v54.89c0 9.1-7.38 16.47-16.47 16.47zM189.55 548.35l-38.81 38.82m0 16.47c-4.21 0-8.43-1.61-11.64-4.82-6.43-6.43-6.43-16.86 0-23.29l38.81-38.81c6.43-6.43 16.86-6.43 23.29 0s6.43 16.86 0 23.29l-38.81 38.81a16.464 16.464 0 0 1-11.65 4.82zM135.57 412.1H80.68m54.89 16.47H80.68c-9.09 0-16.47-7.37-16.47-16.47 0-9.09 7.37-16.47 16.47-16.47h54.89c9.09 0 16.47 7.37 16.47 16.47 0 9.1-7.38 16.47-16.47 16.47zM459.48 544.44l38.81 38.81m0 21.96c-5.62 0-11.24-2.14-15.53-6.43l-38.81-38.81c-8.57-8.57-8.57-22.48 0-31.05s22.48-8.57 31.05 0l38.81 38.81c8.57 8.57 8.57 22.48 0 31.05-4.28 4.29-9.9 6.43-15.52 6.43zM517.13 412.1h54.89m0 16.47h-54.89c-9.09 0-16.47-7.37-16.47-16.47 0-9.09 7.37-16.47 16.47-16.47h54.89c9.09 0 16.47 7.37 16.47 16.47-0.01 9.1-7.38 16.47-16.47 16.47zM460.11 275.5l38.81-38.81m-38.81 55.28c-4.21 0-8.43-1.61-11.64-4.82-6.43-6.43-6.43-16.86 0-23.29l38.81-38.81c6.43-6.43 16.86-6.43 23.29 0s6.43 16.86 0 23.29l-38.81 38.81a16.447 16.447 0 0 1-11.65 4.82z" fill="#FFCE54" p-id="2654"></path><path d="M784.15 846.83H658.27c-96.91 0-176.21-79.29-176.21-176.21 0-96.91 79.29-176.21 176.21-176.21h125.88c96.91 0 176.21 79.29 176.21 176.21-0.01 96.91-79.3 176.21-176.21 176.21z" fill="#EAEAEA" p-id="2655"></path><path d="M777.8 523.09c3.05-15.19 4.65-30.9 4.65-46.98 0-131.24-106.39-237.62-237.62-237.62S307.2 344.88 307.2 476.11c0 10.99 0.76 21.79 2.21 32.38-21.22-9.06-44.58-14.08-69.12-14.08-97.32 0-176.21 78.89-176.21 176.21 0 1.31 0.02 2.62 0.05 3.93-0.03 1.3-0.05 2.59-0.05 3.9 0 92.61 75.77 168.37 168.37 168.37h480.62c92.61 0 168.37-75.77 168.37-168.37 0.02-69.71-42.92-129.87-103.64-155.36z" fill="#F7F7F7" p-id="2656"></path></svg>