<?xml version="1.0" standalone="no"?><!DOCTYPE svg PUBLIC "-//W3C//DTD SVG 1.1//EN" "http://www.w3.org/Graphics/SVG/1.1/DTD/svg11.dtd"><svg t="1742010651668" class="icon" viewBox="0 0 1205 1024" version="1.1" xmlns="http://www.w3.org/2000/svg" p-id="4163" xmlns:xlink="http://www.w3.org/1999/xlink" width="235.3515625" height="200"><path d="M793.807699 0a314.87153 314.87153 0 0 0 404.361333 437.505705A314.87153 314.87153 0 1 1 793.807699 0z" fill="#FDCB01" p-id="4164"></path><path d="M803.751011 777.235513m-240.296694 0a240.296694 240.296694 0 1 0 480.593388 0 240.296694 240.296694 0 1 0-480.593388 0Z" fill="#91E0FC" p-id="4165"></path><path d="M261.840535 536.93882v-11.600531a250.240005 250.240005 0 1 1 464.021202 134.234705 230.353382 230.353382 0 0 1-338.07259 308.242656 240.296694 240.296694 0 1 1-147.492453-430.87683z" fill="#AAE9FF" p-id="4166"></path></svg>