<?xml version="1.0" standalone="no"?><!DOCTYPE svg PUBLIC "-//W3C//DTD SVG 1.1//EN" "http://www.w3.org/Graphics/SVG/1.1/DTD/svg11.dtd"><svg t="1742012833337" class="icon" viewBox="0 0 1024 1024" version="1.1" xmlns="http://www.w3.org/2000/svg" p-id="20391" xmlns:xlink="http://www.w3.org/1999/xlink" width="200" height="200"><path d="M43.52 786.944c5.12-368.64 130.048-517.632 295.424-588.8 204.8-89.6 402.944-59.392 571.392-174.592 102.4-69.632 112.64 35.84 113.152 51.2 7.68 245.248-72.704 487.936-301.056 622.08-248.832 145.92-544.256-51.2-683.52 318.464a7.68 7.68 0 0 1-5.632 6.144H9.216a9.216 9.216 0 0 1-8.704-11.776 1058.304 1058.304 0 0 1 246.784-437.76 1374.72 1374.72 0 0 1 388.608-278.528c12.288-6.144 3.584-27.648-9.216-23.04a1117.696 1117.696 0 0 0-322.048 179.2 1010.688 1010.688 0 0 0-261.12 337.408z m0 0" p-id="20392" fill="#ffffff"></path></svg>